<svg width="970" height="970" xmlns="http://www.w3.org/2000/svg"><path d="M213.17 794c72.557 64.1 167.9 103 272.33 103 104.43 0 199.773-38.9 272.33-103H213.17zm-21.69-20.603L437 484 192.846 196.214C119.366 270.544 74 372.724 74 485.5c0 112.075 44.805 213.686 117.48 287.897zM216.603 174h537.794C682.277 111.688 588.29 74 485.5 74c-102.79 0-196.777 37.688-268.897 100zm562.465 23.142L532 484l248.442 288.453C852.574 698.325 897 597.1 897 485.5c0-112.308-44.99-214.107-117.932-288.358zM485 970C217.142 970 0 752.858 0 485S217.142 0 485 0s485 217.142 485 485-217.142 485-485 485zm-1-432L322 724h324L484 538zm0-106l162-186H322l162 186z"/></svg>
